<svg xmlns="http://www.w3.org/2000/svg" viewBox="-0.5 -0.5 115 115" fill="currentColor" id="Arrows-Clockwise--Streamline-Phosphor.svg" height="115" width="115"><desc>Arrows Clockwise Streamline Icon: https://streamlinehq.com</desc><path d="M112.86 10.4542453125v27.93c0 2.57083359375 -2.08419609375 4.65489609375 -4.65498515625 4.6550296875h-27.93c-3.5834296875000002 0 -5.823084375 -3.87916171875 -4.031369531249999 -6.9825 0.83153203125 -1.4402742187500002 2.3682609375 -2.32751484375 4.031369531249999 -2.32751484375h16.6939640625l-8.51281640625 -8.51281640625c-8.65148671875 -8.69085234375 -20.39776171875 -13.5940546875 -32.66064375 -13.633331250000001h-0.26184375c-12.16019296875 -0.0285 -23.842788281249998 4.7310890625 -32.52099375 13.24929375 -2.6194171875 2.4453 -6.9036796875 1.1380406250000001 -7.711654687499999 -2.3531203125 -0.35789765625 -1.54634765625 0.09676640624999999 -3.1684875 1.20630703125 -4.30354453125 21.888534375 -21.392946093750002 56.91641484375 -21.18796875 78.55312500000001 0.45969609375l8.4895265625 8.51281640625V10.4542453125c0 -3.5833851562500003 3.87916171875 -5.82303984375 6.9825 -4.031325 1.4402742187500002 0.83153203125 2.32751484375 2.3682609375 2.32751484375 4.031325Zm-21.872681250000003 78.7218984375c-18.23861953125 17.81566171875 -47.41522734375 17.6444390625 -65.44348125 -0.38403750000000003l-8.51281640625 -8.5128609375h16.6939640625c3.5834296875000002 0 5.823084375 -3.87916171875 4.031369531249999 -6.9825 -0.8314874999999999 -1.44018515625 -2.36835 -2.3274257812499997 -4.031369531249999 -2.3274703125h-27.93C3.2240179687499997 70.96914140625 1.1400000000000001 73.05329296875 1.1400000000000001 75.62426015625v27.93c0 3.5834296875000002 3.87916171875 5.82303984375 6.9825 4.031325 1.4402742187500002 -0.83153203125 2.32751484375 -2.3682609375 2.32751484375 -4.031325v-16.694008593750002l8.51281640625 8.5128609375c10.38188203125 10.4341171875 24.481767187499997 16.3193671875 39.200903906250005 16.3622953125h0.3084234375c14.593870312499998 0.037628906250000003 28.61502421875 -5.675775 39.02634140625 -15.90264375 2.5048828125 -2.56250625 1.2964382812500002 -6.87566953125 -2.1752179687499997 -7.76371171875 -1.5377085937500001 -0.39334453124999996 -3.1699125 0.0239578125 -4.3301296875 1.10709140625Z" stroke-width="1"></path></svg>