<svg xmlns="http://www.w3.org/2000/svg" fill="none" viewBox="-3.595 -3.595 115 115" id="Cashless-Payment-Qr-Code-Basket--Streamline-Ultimate.svg" height="115" width="115"><desc>Cashless Payment Qr Code Basket Streamline Icon: https://streamlinehq.com</desc><path stroke="#000000" stroke-linecap="round" stroke-linejoin="round" d="M96.96161875 77.4884375h-34.454279166666666c-1.0870841666666666 0.0031444583333333333 -2.157547625 0.269525 -3.119751875 0.7757827916666666 -0.9617550416666667 0.506707 -1.78695075 1.238467375 -2.405061416666667 2.1328411666666667 -0.6176614583333334 0.8948229999999999 -1.0098203333333333 1.9257561250000002 -1.142786 3.004754541666667 -0.13341487500000002 1.0789984166666666 -0.0031444583333333333 2.1741683333333333 0.378682625 3.192074416666667l5.8756450000000005 15.6594025c0.23897883333333333 0.6414695 0.6679727916666667 1.1948941666666668 1.2299324166666665 1.5857054166666666 0.561959625 0.39126045833333334 1.2299324166666665 0.60104075 1.9145259166666668 0.6019391666666667h29.018858333333334c0.6845935000000001 -0.0008984166666666667 1.3525662916666665 -0.21067870833333333 1.9145259166666668 -0.6019391666666667 0.561959625 -0.39081125 0.9909535833333333 -0.9442359166666667 1.2299324166666665 -1.5857054166666666l5.8756450000000005 -15.6594025c0.3827255 -1.020152125 0.5125467083333333 -2.1175680833333335 0.37823341666666666 -3.1988125416666664 -0.1347625 -1.0812444583333334 -0.5291674166666667 -2.1135252083333333 -1.1504225416666667 -3.0087974166666664 -0.6208059166666666 -0.8952722083333333 -1.4495952916666666 -1.6265833749999998 -2.4149439999999998 -2.1314935416666665 -0.9657979166666667 -0.5044609583333334 -2.0394058333333334 -0.7676970416666666 -3.128736041666667 -0.7663494166666667Z" stroke-width="7.19"></path><path stroke="#000000" stroke-linecap="round" stroke-linejoin="round" d="m62.88916666666667 77.4884375 6.738125 -16.8453125" stroke-width="7.19"></path><path stroke="#000000" stroke-linecap="round" stroke-linejoin="round" d="M96.57979166666667 77.4884375 89.84166666666667 60.643125" stroke-width="7.19"></path><path stroke="#000000" stroke-linecap="round" stroke-linejoin="round" d="M72.99635416666666 94.33375000000001v-6.738125" stroke-width="7.19"></path><path stroke="#000000" stroke-linecap="round" stroke-linejoin="round" d="M86.47260416666667 94.33375000000001v-6.738125" stroke-width="7.19"></path><path stroke="#000000" stroke-linecap="round" stroke-linejoin="round" d="M44.5299771625 104.4409375h-26.9525c-3.5741261041666665 0 -7.001855212500001 -1.4199475416666667 -9.529146216666666 -3.947193625 -2.527291004166667 -2.5272460833333334 -3.9470858150000003 -5.955154875000001 -3.9470858150000003 -9.529056375000001V16.8453125c0 -3.5741261041666665 1.4197948108333334 -7.001855212500001 3.9470858150000003 -9.529146216666666C10.57562195 4.788875279166667 14.003351058333333 3.3690625 17.577477162500003 3.3690625H51.26814708333333c3.5739015 0 7.001810291666667 1.4198127791666668 9.529056375000001 3.9471037833333336 2.5272460833333334 2.527291004166667 3.947193625 5.9550201125 3.947193625 9.529146216666666v29.198541666666667" stroke-width="7.19"></path><path stroke="#000000" stroke-linecap="round" stroke-linejoin="round" d="M4.101245130833333 85.91109375H42.28393549583334" stroke-width="7.19"></path><path stroke="#000000" stroke-linecap="round" stroke-linejoin="round" d="M17.577477162500003 28.63703125v-6.738125h6.738125" stroke-width="7.19"></path><path stroke="#000000" stroke-linecap="round" stroke-linejoin="round" d="M37.79185216250001 21.89890625H51.26814708333333v13.47625H37.79185216250001v-13.47625Z" stroke-width="7.19"></path><path stroke="#000000" stroke-linecap="round" stroke-linejoin="round" d="M17.577477162500003 55.58953125h13.47625v13.47625h-13.47625v-13.47625Z" stroke-width="7.19"></path><path stroke="#000000" stroke-linecap="round" stroke-linejoin="round" d="M17.577477162500003 42.11328125h13.47625" stroke-width="7.19"></path><path stroke="#000000" stroke-linecap="round" stroke-linejoin="round" d="M41.160914662500005 48.851406250000004H51.26814708333333" stroke-width="7.19"></path><path stroke="#000000" stroke-linecap="round" stroke-linejoin="round" d="M51.26814708333333 62.327656250000004v6.738125H41.160914662500005" stroke-width="7.19"></path></svg>