<svg viewBox="-3.595 -3.595 115 115" fill="none" xmlns="http://www.w3.org/2000/svg" id="Delivery-Truck--Streamline-Iconoir.svg" height="115" width="115"><desc>Delivery Truck Streamline Icon: https://streamlinehq.com</desc><path d="M35.921393583333334 83.12824812500001c4.965998125 0 8.991803208333334 -4.025355875 8.991803208333334 -8.991803208333334s-4.025805083333333 -8.991803208333334 -8.991803208333334 -8.991803208333334 -8.991803208333334 4.025805083333333 -8.991803208333334 8.991803208333334 4.025805083333333 8.991803208333334 8.991803208333334 8.991803208333334Z" stroke="currentColor" stroke-miterlimit="1.5" stroke-linecap="round" stroke-linejoin="round" stroke-width="7.19"></path><path d="M80.880409625 83.12824812500001c4.965998125 0 8.991803208333334 -4.025355875 8.991803208333334 -8.991803208333334s-4.025805083333333 -8.991803208333334 -8.991803208333334 -8.991803208333334 -8.991803208333334 4.025805083333333 -8.991803208333334 8.991803208333334 4.025805083333333 8.991803208333334 8.991803208333334 8.991803208333334Z" stroke="currentColor" stroke-miterlimit="1.5" stroke-linecap="round" stroke-linejoin="round" stroke-width="7.19"></path><path d="M45.13780095833333 74.13644491666666h22.255128458333335V27.379247916666667c0 -1.4900240416666666 -1.2079212083333333 -2.6974960416666667 -2.69794525 -2.6974960416666667H4.4498577500000005" stroke="currentColor" stroke-linecap="round" stroke-width="7.19"></path><path d="M25.356013583333333 74.13644491666666H16.139157c-1.4895748333333334 0 -2.6974960416666667 -1.2074719999999999 -2.6974960416666667 -2.6974960416666667v-22.029625875" stroke="currentColor" stroke-linecap="round" stroke-width="7.19"></path><path d="M8.945983958333334 38.169232083333334h17.983606416666667" stroke="currentColor" stroke-linecap="round" stroke-linejoin="round" stroke-width="7.19"></path><path d="M67.39292941666666 38.169232083333334h25.2221495c1.0659713750000002 0 2.0322185000000004 0.6279932500000001 2.4652553333333334 1.6018769166666667l8.047118083333334 18.1066895c0.15318004166666666 0.34499199999999997 0.23268991666666666 0.7182841249999999 0.23268991666666666 1.095619125v12.46553125c0 1.4900240416666666 -1.2079212083333333 2.6974960416666667 -2.69794525 2.6974960416666667h-8.542145666666666" stroke="currentColor" stroke-linecap="round" stroke-width="7.19"></path><path d="M67.39292941666666 74.13644491666666h4.495677" stroke="currentColor" stroke-linecap="round" stroke-width="7.19"></path></svg>