<svg id="Thumbs-Up-Like-Star--Streamline-Atlas.svg" xmlns="http://www.w3.org/2000/svg" viewBox="-3.595 -3.595 115 115" height="115" width="115"><desc>Thumbs Up Like Star Streamline Icon: https://streamlinehq.com</desc><defs></defs><path d="M24.975534125 96.94544725H34.53423825L44.09339158333333 101.69941904166667H74.13554649999999C81.508402875 101.73355887500001 87.69220479166667 96.14181354166666 88.39791108333333 88.80264779166666L91.83705008333332 54.360048041666666C91.86220575 54.057281624999995 91.86220575 53.75271837500001 91.83705008333332 53.44995195833334C91.83705008333332 48.42196308333334 87.76093366666666 44.346295875 82.733394 44.34584666666667H63.21124904166667L63.71660841666667 43.334678708333335C66.53718754166667 37.71508245833333 68.00924325 31.515558249999998 68.015981375 25.227989208333334C68.01777820833334 20.046371083333334 63.890002833333334 15.806293625 58.709732333333335 15.669285083333333C53.430186791666664 15.668835875000001 49.15102820833334 19.948892875000002 49.15102820833334 25.227989208333334C49.15237583333334 31.357886125 46.71362379166667 37.235777166666665 42.37382208333333 41.56434866666667L34.78714254166667 49.10026766666667H24.975534125" fill="none" stroke="#000000" stroke-miterlimit="10" stroke-width="7.19"></path><path d="M5.857676666666667 44.34584666666667H24.975534125V101.69941904166667H5.857676666666667Z" fill="none" stroke="#000000" stroke-miterlimit="10" stroke-width="7.19"></path><path d="M91.887810625 6.110580958333334L95.023734 12.3819785L101.95232333333334 13.393146458333334L96.94544725 18.299399875L98.10889683333333 25.227989208333334L91.887810625 21.940682624999997L85.71748495833334 25.227989208333334L86.88093454166668 18.299399875L81.87360925 13.393146458333334L88.80264779166666 12.3819785L91.887810625 6.110580958333334Z" fill="none" stroke="#000000" stroke-miterlimit="10" stroke-width="7.19"></path></svg>